<svg width="100" height="100" viewBox="0 0 100 100" fill="none" xmlns="http://www.w3.org/2000/svg">
<rect x="5" y="5" width="90" height="90" rx="45" fill="white" stroke="#333333" stroke-width="10"/>
<path d="M31.3885 68.4972C28.737 68.4972 26.3755 68.0414 24.304 67.13C22.2443 66.2067 20.6167 64.9401 19.4212 63.3303C18.2375 61.7086 17.6278 59.8383 17.5923 57.7195H25.3338C25.3812 58.6072 25.6712 59.3885 26.2038 60.0632C26.7483 60.7261 27.4704 61.241 28.37 61.608C29.2696 61.9749 30.2817 62.1584 31.4062 62.1584C32.5781 62.1584 33.6139 61.9512 34.5135 61.5369C35.4131 61.1226 36.1174 60.5485 36.6264 59.8146C37.1354 59.0807 37.3899 58.2344 37.3899 57.2756C37.3899 56.3049 37.1177 55.4467 36.5732 54.701C36.0405 53.9434 35.2711 53.3516 34.2649 52.9254C33.2706 52.4993 32.0869 52.2862 30.7138 52.2862H27.3224V46.6399H30.7138C31.8738 46.6399 32.8977 46.4387 33.7855 46.0362C34.6851 45.6338 35.3835 45.0774 35.8807 44.3672C36.3778 43.6451 36.6264 42.8047 36.6264 41.8459C36.6264 40.9344 36.4074 40.1354 35.9695 39.4489C35.5433 38.7505 34.9396 38.206 34.1584 37.8153C33.389 37.4247 32.4893 37.2294 31.4595 37.2294C30.4179 37.2294 29.465 37.4188 28.6009 37.7976C27.7367 38.1645 27.0443 38.6913 26.5234 39.3778C26.0026 40.0644 25.7244 40.8693 25.6889 41.7926H18.3203C18.3558 39.6974 18.9536 37.8509 20.1136 36.2528C21.2737 34.6548 22.8362 33.406 24.8011 32.5064C26.7779 31.5949 29.0092 31.1392 31.495 31.1392C34.0045 31.1392 36.2003 31.5949 38.0824 32.5064C39.9645 33.4178 41.4264 34.6489 42.468 36.1996C43.5215 37.7384 44.0424 39.4666 44.0305 41.3842C44.0424 43.4202 43.4091 45.1188 42.1307 46.4801C40.8641 47.8414 39.2128 48.7055 37.1768 49.0724V49.3565C39.852 49.6998 41.888 50.629 43.2848 52.1442C44.6934 53.6475 45.3918 55.5296 45.38 57.7905C45.3918 59.862 44.794 61.7027 43.5866 63.3125C42.3911 64.9223 40.7398 66.1889 38.6328 67.1122C36.5258 68.0355 34.111 68.4972 31.3885 68.4972ZM64.0101 68H51.1195V31.6364H64.1167C67.7743 31.6364 70.923 32.3643 73.5627 33.8203C76.2024 35.2644 78.2324 37.3419 79.6529 40.0526C81.0852 42.7633 81.8013 46.0066 81.8013 49.7827C81.8013 53.5705 81.0852 56.8258 79.6529 59.5483C78.2324 62.2708 76.1905 64.3601 73.5272 65.8161C70.8757 67.272 67.7033 68 64.0101 68ZM58.8077 61.4126H63.6905C65.9632 61.4126 67.8749 61.0102 69.4256 60.2053C70.9881 59.3885 72.16 58.1278 72.9412 56.4233C73.7343 54.7069 74.1309 52.4934 74.1309 49.7827C74.1309 47.0956 73.7343 44.8999 72.9412 43.1953C72.16 41.4908 70.994 40.236 69.4434 39.4311C67.8927 38.6262 65.981 38.2237 63.7083 38.2237H58.8077V61.4126Z" fill="#393939"/>
</svg>
